<svg xmlns="http://www.w3.org/2000/svg" width="24" height="24" viewBox="0 0 24 24"><path fill="#041E50" d="M9.408 1C5.685 1 2.86 3.266 1.652 6.185.444 9.104.84 12.705 3.472 15.34c2.632 2.634 6.232 3.03 9.149 1.821 2.917-1.209 5.182-4.035 5.182-7.76 0-4.634-3.763-8.4-8.395-8.4zm0 .8c4.2 0 7.595 3.398 7.595 7.6 0 3.403-2.04 5.924-4.688 7.021-2.648 1.097-5.873.758-8.278-1.648-2.404-2.405-2.743-5.632-1.646-8.282C3.487 3.841 6.007 1.8 9.408 1.8zM9.6 5.006a.4.4 0 00-.4.4v3.8H5.405a.4.4 0 00-.4.4.4.4 0 00.4.4h3.798v3.4a.4.4 0 00.4.4.4.4 0 00.4-.4v-3.4h3.397a.4.4 0 00.4-.4.4.4 0 00-.4-.4h-3.398v-3.8a.4.4 0 00-.4-.4zM16.615 16.2a.4.4 0 00-.294.117.4.4 0 000 .566l5.997 6a.4.4 0 00.565 0 .4.4 0 000-.566l-5.997-6a.4.4 0 00-.27-.117z"/></svg>